<svg width="29" height="29" viewBox="0 0 29 29" fill="none" xmlns="http://www.w3.org/2000/svg">
<path d="M24.59 26.7522L20.8684 23.0474M4.40952 26.7522L8.13115 23.0474M14.4998 10.8961V15.2205L16.5782 17.2649M6.92147 2.84677C6.38082 2.30612 5.64754 2.00238 4.88293 2.00238C4.11833 2.00238 3.38504 2.30612 2.84439 2.84677C2.30375 3.38742 2.00001 4.12071 2 4.88531C2 5.64992 2.30375 6.38319 2.84439 6.92385M26.1556 6.92147C26.6963 6.38081 27 5.64754 27 4.88293C27 4.11833 26.6963 3.38504 26.1556 2.84439C25.6149 2.30375 24.8816 2 24.1171 2C23.3524 2 22.6191 2.30375 22.0786 2.84439M24.59 15.2205C24.59 20.7932 20.0725 25.3108 14.4998 25.3108C8.92707 25.3108 4.40952 20.7932 4.40952 15.2205C4.40952 9.6478 8.92707 5.13025 14.4998 5.13025C20.0725 5.13025 24.59 9.6478 24.59 15.2205Z" stroke="white" stroke-opacity="0.7" stroke-width="3" stroke-linecap="round" stroke-linejoin="round"/>
</svg>
