<svg width="25" height="25" viewBox="0 0 25 25" fill="none" xmlns="http://www.w3.org/2000/svg">
<path fill-rule="evenodd" clip-rule="evenodd" d="M13.6364 3.40909V0H11.3636V3.40909H7.95455C3.56138 3.40909 0 6.97045 0 11.3636V21.453C0 23.412 1.58803 25 3.54695 25C4.48767 25 5.38985 24.6264 6.05503 23.9611L10.698 19.3182H14.302L18.945 23.9611C19.6102 24.6264 20.5123 25 21.453 25C23.412 25 25 23.412 25 21.453V11.3636C25 6.97045 21.4386 3.40909 17.0455 3.40909H13.6364ZM22.7273 11.3636C22.7273 8.22565 20.1835 5.68182 17.0455 5.68182H7.95455C4.81656 5.68182 2.27273 8.22565 2.27273 11.3636V21.453C2.27273 22.1568 2.84321 22.7273 3.54695 22.7273C3.88489 22.7273 4.209 22.593 4.44797 22.3541L9.75651 17.0455H15.2435L20.552 22.3541C20.7911 22.593 21.1152 22.7273 21.453 22.7273C22.1568 22.7273 22.7273 22.1568 22.7273 21.453V11.3636ZM4.54545 13.6364V11.3636H6.81818V9.09091H9.09091V11.3636H11.3636V13.6364H9.09091V15.9091H6.81818V13.6364H4.54545ZM17.0455 10.7955C17.0455 11.7368 16.2823 12.5 15.3409 12.5C14.3995 12.5 13.6364 11.7368 13.6364 10.7955C13.6364 9.85409 14.3995 9.09091 15.3409 9.09091C16.2823 9.09091 17.0455 9.85409 17.0455 10.7955ZM18.75 15.9091C19.6914 15.9091 20.4545 15.1459 20.4545 14.2045C20.4545 13.2632 19.6914 12.5 18.75 12.5C17.8086 12.5 17.0455 13.2632 17.0455 14.2045C17.0455 15.1459 17.8086 15.9091 18.75 15.9091Z" fill="white" fill-opacity="0.7"/>
</svg>
