<svg width="16" height="19" viewBox="0 0 16 19" fill="none" xmlns="http://www.w3.org/2000/svg">
<path d="M5.97021 14.2034C5.97021 14.6944 7.49064 14.6363 8.09938 14.6363C8.70701 14.6363 10.228 14.6944 10.228 14.2034C10.228 13.7118 9.13048 13.3653 8.09938 13.3653C7.06717 13.3653 5.97021 13.7118 5.97021 14.2034Z" fill="white"/>
<path d="M8.55286 11.9207L7.91402 10.874L7.27515 11.9207L7.91402 12.0295L8.55286 11.9207Z" fill="white"/>
<path d="M7.11166 8.20531C6.8762 7.54748 4.39887 7.11618 3.64397 6.84947C3.00178 6.62403 2.9164 6.80929 2.9164 7.11729C2.9164 7.11729 2.68093 9.49867 4.47868 9.99131C6.27696 10.4835 7.34488 8.8559 7.11166 8.20531Z" fill="white"/>
<path d="M12.3565 6.84947C11.601 7.11618 9.12369 7.54748 8.88822 8.20531C8.655 8.8559 9.72292 10.4835 11.5218 9.99135C13.3195 9.49867 13.0841 7.11732 13.0841 7.11732C13.0841 6.80929 12.9981 6.62403 12.3565 6.84947Z" fill="white"/>
<path d="M9.69842 0C8.78169 0.684047 7.99998 2.27757 7.99998 2.27757C7.99998 2.27757 7.21884 0.684047 6.30211 0C2.14813 0.792853 0 4.46591 0 7.78462C0 10.9466 0.60038 13.776 2.01422 15.5246C3.36224 17.1895 5.38596 18.2831 7.99998 18.2831C10.6146 18.2831 12.6388 17.1895 13.9863 15.5246C15.4007 13.776 16 10.9466 16 7.78462C16 4.46591 13.8518 0.792853 9.69842 0ZM7.23166 4.29961L7.90567 3.58317L8.57911 4.29961C8.57911 4.29961 8.53726 0.971399 11.2328 1.9824C10.9382 2.06664 10.2642 2.57217 10.2642 2.57217C9.71624 2.9092 9.21131 4.67791 9.3374 5.60525C9.08465 5.52154 7.90567 4.59421 7.90567 4.59421C7.90567 4.59421 6.72616 5.52154 6.47341 5.60525C6.60007 4.67791 6.09457 2.9092 5.54718 2.57217C5.54718 2.57217 4.8726 2.06667 4.578 1.9824C7.27408 0.971399 7.23166 4.29961 7.23166 4.29961ZM12.8575 12.8085C12.7621 11.3868 12.7621 11.3868 12.7621 11.3868L11.625 12.2399L11.668 11.4448C10.5788 11.716 9.72906 11.3444 9.07012 11.0051L9.94332 12.6165C10.8667 12.9993 11.5519 13.6499 11.5519 14.4634C11.5519 14.8472 11.3566 15.3561 10.4299 15.6016C9.9952 15.7165 9.4897 15.7534 9.03776 15.7645C8.37382 16.1132 7.99998 17.3558 7.99998 17.3558C7.99998 17.3558 7.62725 16.1132 6.96331 15.7645C6.5108 15.7533 6.0053 15.7165 5.57064 15.6016C4.64331 15.3566 4.44859 14.8472 4.44859 14.4633C4.44859 13.6342 5.15942 12.9741 6.10964 12.5942L6.9862 10.9755C6.32 11.3215 5.45348 11.7226 4.33253 11.4442L4.37549 12.2399L3.23837 11.3867C3.23837 11.3867 3.23837 11.3867 3.14352 12.8084C2.22401 12.2571 1.62477 10.4365 1.58738 8.16621C1.49475 7.51673 1.52768 6.88178 1.64038 6.36735C1.79103 5.08739 2.27532 3.88278 2.95437 3.06871C2.77415 3.78793 3.98158 5.31336 4.71694 5.75362C5.68052 6.10068 6.81265 6.47284 7.99998 6.47284C9.18842 6.47284 10.3205 6.10068 11.2841 5.75362C12.0195 5.31229 13.2269 3.78793 13.0467 3.06871C13.7257 3.88445 14.2106 5.08964 14.3607 6.37071C14.4723 6.88403 14.5052 7.51676 14.4132 8.16342C14.3769 10.4349 13.7771 12.2572 12.8575 12.8085Z" fill="white"/>
</svg>
