<svg width="25" height="19" viewBox="0 0 25 19" fill="none" xmlns="http://www.w3.org/2000/svg">
<path d="M2.27271 0C1.01953 0 0 1.01953 0 2.27271C0 3.52588 1.01953 4.54541 2.27271 4.54541C3.52588 4.54541 4.54541 3.52588 4.54541 2.27271C4.54541 1.01953 3.52593 0 2.27271 0Z" fill="white" fill-opacity="0.7"/>
<path d="M2.27271 14.3939C1.01953 14.3939 0 15.4135 0 16.6666C0 17.9198 1.01953 18.9393 2.27271 18.9393C3.52588 18.9393 4.54541 17.9198 4.54541 16.6666C4.54546 15.4135 3.52593 14.3939 2.27271 14.3939Z" fill="white" fill-opacity="0.7"/>
<path d="M2.2727 7.19702C1.01953 7.19702 0 8.21655 0 9.46973C0 10.7229 1.01953 11.7424 2.2727 11.7424C3.52588 11.7424 4.54546 10.7229 4.54546 9.46973C4.54546 8.21655 3.52593 7.19702 2.2727 7.19702Z" fill="white" fill-opacity="0.7"/>
<path d="M25 8.33325H6.43945V10.606H25V8.33325Z" fill="white" fill-opacity="0.7"/>
<path d="M25 15.5303H6.43945V17.803H25V15.5303Z" fill="white" fill-opacity="0.7"/>
<path d="M25 1.13623H6.43945V3.40894H25V1.13623Z" fill="white" fill-opacity="0.7"/>
</svg>
